<svg width="16" height="16" viewBox="0 0 16 16" fill="none" xmlns="http://www.w3.org/2000/svg">
<g id="icons/16/icon-note">
<path id="Shape" fill-rule="evenodd" clip-rule="evenodd" d="M14 0C14.5523 0 15 0.447715 15 1V2.024L13 4.035V2H3V14H13V10.95L15 8.939V15C15 15.5523 14.5523 16 14 16H2C1.44772 16 1 15.5523 1 15V13H0.5C0.223858 13 0 12.7761 0 12.5C0 12.2239 0.223858 12 0.5 12H1V10H0.5C0.223858 10 0 9.77614 0 9.5C0 9.22386 0.223858 9 0.5 9H1V7H0.5C0.223858 7 0 6.77614 0 6.5C0 6.22386 0.223858 6 0.5 6H1V4H0.5C0.223858 4 0 3.77614 0 3.5C0 3.22386 0.223858 3 0.5 3H1V1C1 0.447715 1.44772 0 2 0H14ZM15.6118 4.29893L15.7015 4.38861C16.0976 4.78468 16.1006 5.43516 15.7038 5.83696L9.55059 12.0005H8V10.4821L14.1709 4.29821C14.569 3.90012 15.2137 3.90083 15.6118 4.29893ZM7 11V12H5V11H7ZM7 9V10H5V9H7ZM9 7V8H5V7H9ZM11 5V6H5V5H11Z" fill="#1D212A" fill-opacity="0.72"/>
</g>
</svg>
