<?xml version="1.0" encoding="UTF-8" standalone="no"?>
<svg
   width="32"
   height="32"
   viewBox="0 0 32 32"
   xmlns="http://www.w3.org/2000/svg"
   >
  <path
     d="m 22,0 c -5.522994,0 -10,4.4770055 -10,10 0,1.056899 0.16475,2.074951 0.46875,3.03125 l -1.882812,1.882812 C 10.210838,15.289162 10,15.797726 10,16.328125 V 16.75 C 10,17.440399 9.4403593,18 8.75,18 H 8 c -0.5522794,0 -1,0.447701 -1,1 v 0.5 C 7,20.328399 6.3284292,21 5.5,21 H 5 c -0.5522794,0 -1,0.447701 -1,1 v 0.5 c 0,0.865599 -0.6266696,1.603794 -1.4804688,1.746094 l -0.8867187,0.148437 c -0.4111696,0.0686 -0.79118279,0.263894 -1.0859375,0.558594 L 0.5,25 C 0.17985532,25.3201 0,25.754332 0,26.207031 V 30 c 0,0.81194 0.48464006,1.508915 1.1796875,1.822266 L 15.447266,17.554688 c 0.542199,0.470799 1.136285,0.883969 1.771484,1.230468 L 4,32 h 0.3046875 c 1.0835989,0 2.1214408,-0.440051 2.875,-1.21875 L 18.298828,19.292969 c 1.062799,0.423699 2.215976,0.669925 3.421875,0.703125 L 22,20 22.279297,19.9961 c 5.300595,-0.1457 9.571097,-4.417202 9.716797,-9.716797 L 32,10 31.996094,9.7207031 C 31.850394,4.4201384 27.579892,0.14957243 22.279297,0.00390625 Z m 0.142578,4 0.28125,0.00586 c 1.403999,0.06632 2.786876,0.6384385 3.859375,1.7109375 l 0.191406,0.1992187 c 1.353799,1.4840685 1.806075,3.4926 1.359375,5.3300788 l -0.04102,0.148437 c -0.4516,1.400899 -2.256967,1.856315 -3.322266,0.791016 L 19.814453,7.5292969 19.708984,7.4179688 C 18.747885,6.3042099 19.288408,4.5227153 20.753906,4.1660156 21.209906,4.0550157 21.676579,4 22.142578,4 Z M 1.203125,31.833984 c 0.017194,0.0075 0.035293,0.01253 0.052734,0.01953 -0.017566,-0.0071 -0.035419,-0.01199 -0.052734,-0.01953 z"
     style="fill:#a384ef"
     />
  <path
     fill-rule="evenodd"
     clip-rule="evenodd"
     d="M 4.00013,32 H 1.99996 C 1.70651,32 1.42782,31.9368 1.17676,31.8233 L 15.4471,17.5538 c 0.5422,0.4708 1.1356,0.8842 1.7708,1.2307 z"
     fill="#95999d"
     opacity="0.5"
     />
</svg>
