<?xml version="1.0" encoding="UTF-8" standalone="no"?>
<svg
   width="32"
   height="32"
   viewBox="0 0 32 32"
   xmlns="http://www.w3.org/2000/svg"
   xmlns:svg="http://www.w3.org/2000/svg">
  <g
     id="icons/app/email">
    <path
       fill-rule="evenodd"
       clip-rule="evenodd"
       fill="#855cea"
       opacity="1"
       d="M 30.193359 3.0097656 C 30.230111 3.013322 30.266592 3.0198766 30.302734 3.0253906 C 30.266454 3.0198552 30.230253 3.0133285 30.193359 3.0097656 z M 30.751953 3.1484375 C 30.809216 3.1717241 30.861541 3.2041341 30.916016 3.2324219 C 30.861404 3.2040471 30.80937 3.1717899 30.751953 3.1484375 z M 31.099609 3.3320312 C 31.137746 3.3572029 31.170782 3.388365 31.207031 3.4160156 C 31.170829 3.3884148 31.137694 3.3571643 31.099609 3.3320312 z M 31.386719 3.5644531 C 31.429496 3.6057697 31.466895 3.6523044 31.505859 3.6972656 C 31.46667 3.6520875 31.429765 3.6059547 31.386719 3.5644531 z M 0.60351562 3.5664062 C 0.59686028 3.5728887 0.59054827 3.5793635 0.58398438 3.5859375 C 0.59051867 3.5793932 0.59689089 3.5728598 0.60351562 3.5664062 z M 31.628906 3.84375 C 31.663548 3.8924205 31.690449 3.9462754 31.720703 3.9980469 C 31.690365 3.9461367 31.663667 3.8925516 31.628906 3.84375 z M 31.818359 4.1777344 C 31.841551 4.2288861 31.860006 4.2825924 31.878906 4.3359375 C 31.859972 4.2824698 31.84162 4.2290086 31.818359 4.1777344 z M 31.951172 4.5683594 C 31.956178 4.5910341 31.960615 4.6137613 31.964844 4.6367188 C 31.960614 4.6136756 31.956188 4.5911199 31.951172 4.5683594 z M 31.976562 4.7011719 C 31.983356 4.746323 31.988466 4.7918001 31.992188 4.8378906 C 31.988517 4.7915913 31.983348 4.7465333 31.976562 4.7011719 z M 0 5 L 0 27.003906 C 0 28.105905 0.89642523 29 2.0019531 29 L 29.998047 29 C 31.110446 29 32 28.106805 32 27.003906 L 32 5 L 17.505859 17.683594 C 16.67456 18.410993 15.33224 18.416993 14.494141 17.683594 L 0 5 z "  />
    <path
       fill-rule="evenodd"
       clip-rule="evenodd"
       fill="#855cea"
       opacity="0.4"
       d="M 0,5 C 0,3.89543 0.889262,3 2.00174,3 H 29.9983 c 1.0552,0 1.9198,0.81522 1.9962,1.85065 L 32,5 17.5052,17.6829 c -0.8313,0.7274 -2.1723,0.7334 -3.0104,0 z"
       />
  </g>
</svg>
