<svg width="16" height="16" viewBox="0 0 16 16" fill="none" xmlns="http://www.w3.org/2000/svg">
<g id="icons/16/icon-cozy-smile">
<path id="Shape" fill-rule="evenodd" clip-rule="evenodd" d="M4 6C4 3.79086 5.79086 2 8 2C10.2091 2 12 3.79086 12 6C14.2091 6 16 7.79086 16 10C16 12.2091 14.2091 14 12 14H4C1.79086 14 0 12.2091 0 10C0 7.79086 1.79086 6 4 6ZM5.14645 9.85355C5.30074 10.0078 5.56897 10.2224 5.93943 10.4341C6.55703 10.787 7.24917 11 8 11C8.75083 11 9.44297 10.787 10.0606 10.4341C10.431 10.2224 10.6993 10.0078 10.8536 9.85355C11.0488 9.65829 11.0488 9.34171 10.8536 9.14645C10.6583 8.95118 10.3417 8.95118 10.1464 9.14645C10.0507 9.24216 9.85022 9.40257 9.56443 9.56588C9.08828 9.83797 8.56167 10 8 10C7.43833 10 6.91172 9.83797 6.43557 9.56588C6.14978 9.40257 5.94926 9.24216 5.85355 9.14645C5.65829 8.95118 5.34171 8.95118 5.14645 9.14645C4.95118 9.34171 4.95118 9.65829 5.14645 9.85355Z" fill="#1D212A" fill-opacity="0.72"/>
</g>
</svg>
