<svg width="16" height="16" viewBox="0 0 16 16" fill="none" xmlns="http://www.w3.org/2000/svg">
<path fill-rule="evenodd" clip-rule="evenodd" d="M5.509 1C5.78017 1 6.15694 1.15694 6.34837 1.34837L7.65163 2.65163C7.84403 2.84403 8.2308 3 8.50044 3H15.003C15.5536 3 16 3.45576 16 4.00247V12.9915C16 14.1007 15.1055 15 14.0059 15H1.99406C0.892771 15 0 14.1029 0 12.9941V2.00685C0 1.45078 0.450975 1 0.990778 1H5.509ZM10.5 5C9.67157 5 9 5.67157 9 6.5L9.00286 6.59342L9.01133 6.68532L6.54131 7.92033C6.27152 7.66008 5.90446 7.5 5.5 7.5C4.67157 7.5 4 8.17157 4 9C4 9.82843 4.67157 10.5 5.5 10.5C5.8539 10.5 6.17917 10.3774 6.43569 10.1725L6.54131 10.0797L9.01133 11.3147C9.00385 11.3754 9 11.4373 9 11.5C9 12.3284 9.67157 13 10.5 13C11.3284 13 12 12.3284 12 11.5C12 10.6716 11.3284 10 10.5 10C10.1461 10 9.82083 10.1226 9.56431 10.3275L9.45869 10.4203L6.98867 9.18532C6.99615 9.12459 7 9.06275 7 9L6.99714 8.90658L6.98867 8.81468L9.45869 7.57967C9.72848 7.83992 10.0955 8 10.5 8C11.3284 8 12 7.32843 12 6.5C12 5.67157 11.3284 5 10.5 5Z" fill="#297EF2"/>
</svg>
