<svg width="16" height="16" viewBox="0 0 16 16" fill="none" xmlns="http://www.w3.org/2000/svg">
  <g clip-path="url(#clip0_7663_40546)">
    <path fill-rule="evenodd" clip-rule="evenodd"
      d="M3.09687 1.68107L3.09569 1.68148L1.70711 0.292893C1.31658 -0.0976311 0.683417 -0.0976311 0.292893 0.292893C-0.0976311 0.683417 -0.0976311 1.31658 0.292893 1.70711L1 2.41421V8C1 12.8 8 16 8 16C8 16 10.0879 15.0455 11.9831 13.3973L13.2929 14.7071C13.6834 15.0976 14.3166 15.0976 14.7071 14.7071C15.0976 14.3166 15.0976 13.6834 14.7071 13.2929L13.3856 11.9714L13.3863 11.9705L11.964 10.5482L11.9633 10.549L4.67016 3.25595L4.67134 3.25554L3.09687 1.68107ZM3 8V4.41421L10.5649 11.9791C10.4626 12.0661 10.3578 12.1525 10.2506 12.2383C9.47905 12.8555 8.69651 13.3485 8.10147 13.6885C8.06693 13.7083 8.03309 13.7274 8 13.7461C7.96692 13.7274 7.93308 13.7083 7.89853 13.6885C7.30349 13.3485 6.52096 12.8555 5.74939 12.2383C4.09134 10.9118 3 9.43075 3 8Z"
      fill="#000000" />
    <path
      d="M12.9213 8.67705C12.9731 8.45065 13 8.22471 13 8V3.82857L8 2.11429L6.77762 2.53339L5.20315 0.95892L8 1.49012e-08L15 2.4V8C15 8.79429 14.8083 9.54476 14.4884 10.2442L12.9213 8.67705Z"
      fill="#000000" />
  </g>
  <defs>
    <clipPath id="clip0_7663_40546">
      <rect width="16" height="16" fill="white" />
    </clipPath>
  </defs>
</svg>