<svg viewBox="0 0 32 32" fill="none" xmlns="http://www.w3.org/2000/svg">
<g id="icons/files/url">
<circle id="Oval" cx="16" cy="16" r="16" fill="#D9DDE1"/>
<path id="Path" fill-rule="evenodd" clip-rule="evenodd" d="M22.761 2.83908L23.0596 1.6376L23.1489 1.6819C23.2644 1.73969 23.3791 1.79883 23.493 1.85932L23.8284 2.04261L24.1588 2.23355L24.4961 2.43953L24.8209 2.64895C25.0524 2.80224 25.2797 2.96137 25.5026 3.12616L25.7643 3.32384L26.0816 3.57499L26.44 3.87491L26.6767 4.08298L26.9407 4.32505L27.1788 4.55284L27.4248 4.79839L27.5884 4.96766L27.8095 5.20461L28.0825 5.51083L28.2702 5.73073L28.5837 6.11699L28.7512 6.33365L28.9996 6.66978L29.1879 6.9375L29.3709 7.20909L29.6203 7.59986L29.8104 7.91551L29.8969 8.06481C30.0321 8.30118 30.1614 8.54116 30.2847 8.78465L30.465 9.15251L30.5977 9.43979L30.7636 9.82168L30.9198 10.2087C31.0934 10.6556 31.2476 11.1123 31.3811 11.5777L31.4135 11.6924C30.8381 12.5825 29.7997 12.747 29.0573 12.2969L28.9364 12.2163L28.0995 11.6035C28.0256 11.5494 27.9315 11.5324 27.8445 11.5545L27.7809 11.5784L26.7058 12.1294C26.7027 12.1353 26.7038 12.1533 26.7082 12.1593L27.0083 12.2701C27.0329 12.2791 27.0566 12.2911 27.0781 12.3059C27.9588 12.9171 28.0464 13.9546 27.5292 14.6447L27.4425 14.7506L26.6836 15.6027C26.182 16.1658 25.3423 16.3128 24.675 15.9735L24.544 15.8991L22.4987 14.6106C22.4919 14.6064 22.4878 14.6038 22.4764 14.6089L22.4657 14.6166L22.3048 15.5678L22.3058 15.579L22.312 15.5883L23.3788 16.5629C23.9285 17.0651 24.0568 17.8544 23.7104 18.492L23.6289 18.6261L21.9325 21.1367L21.8833 21.2859L21.7354 24.8946C21.7207 25.2549 21.5847 25.5952 21.3488 25.868L21.2416 25.9807L18.9264 28.1964C18.6102 28.4989 18.1918 28.6561 17.7697 28.6561C17.541 28.6561 17.3112 28.6099 17.0959 28.5157L16.9375 28.436L15.4362 27.5773C15.084 27.3758 14.8208 27.0522 14.6977 26.6752L14.6583 26.5315L13.9677 23.4516L13.3055 21.7131L13.2976 21.7027L13.2854 21.6981L10.2548 21.4407C9.77348 21.3998 9.33638 21.1544 9.05745 20.7752L8.97049 20.644L7.24648 17.7416C7.08603 17.4714 7.00971 17.1595 7.02611 16.8489L7.04207 16.694L7.47582 13.8792C7.53223 13.5124 7.71269 13.182 7.98919 12.9341L8.11349 12.833L10.7606 10.8829C11.1844 10.5709 11.7386 10.4789 12.2407 10.6297L12.3896 10.6822L14.9143 11.7106L14.955 11.7239L14.9972 11.7314L18.4082 12.0942L18.6151 12.0412L20.883 10.4541L20.8921 10.4413L20.8909 10.4259L20.6726 9.94894L20.6645 9.93936L20.6524 9.93533L14.0424 9.58197C13.7872 9.56829 13.535 9.49558 13.313 9.37165C12.731 9.04634 12.4104 8.41673 12.4961 7.76743C12.5753 7.16809 12.9851 6.67065 13.5569 6.46369L13.7031 6.41812L15.6208 5.91355L15.7483 5.84384L18.1246 3.65459C18.3494 3.4474 18.6328 3.30543 18.9352 3.24633L19.0878 3.22377L22.7405 2.85653C22.7504 2.85555 22.7587 2.8485 22.761 2.83908Z" fill="#95999D"/>
</g>
</svg>
