<svg width="32" height="32" viewBox="0 0 32 32" fill="none" xmlns="http://www.w3.org/2000/svg">
<path fill-rule="evenodd" clip-rule="evenodd" d="M2 2.00174C2 0.896211 2.99825 0 4.22743 0L28.7726 0C30.0027 0 31 0.889262 31 2.00174V29.9983C31 31.1038 30.0018 32 28.7726 32H4.22743C2.99725 32 2 31.1107 2 29.9983V2.00174Z" fill="#FFD799"/>
<path fill-rule="evenodd" clip-rule="evenodd" d="M5 26.5C5 25.6716 4.32843 25 3.5 25H1.5C0.671573 25 0 25.6716 0 26.5C0 27.3284 0.671573 28 1.5 28H3.5C4.32843 28 5 27.3284 5 26.5ZM5 19.5C5 18.6716 4.32843 18 3.5 18H1.5C0.671573 18 0 18.6716 0 19.5C0 20.3284 0.671573 21 1.5 21H3.5C4.32843 21 5 20.3284 5 19.5ZM5 12.5C5 11.6716 4.32843 11 3.5 11H1.5C0.671573 11 0 11.6716 0 12.5C0 13.3284 0.671573 14 1.5 14H3.5C4.32843 14 5 13.3284 5 12.5ZM5 5.5C5 4.67157 4.32843 4 3.5 4H1.5C0.671573 4 0 4.67157 0 5.5C0 6.32843 0.671573 7 1.5 7H3.5C4.32843 7 5 6.32843 5 5.5ZM25 22C25 21 23 18 21 18C20.101 18 19.8082 18.202 19.4857 18.4245C19.0908 18.6969 18.6515 19 17 19C15.3485 19 14.9092 18.6969 14.5143 18.4245C14.1918 18.202 13.899 18 13 18C11 18 9 21 9 22C9 23 9 24 10 24H24C24.8235 24 24.9689 23.3218 24.9945 22.5239L25 22ZM21 12.5C21 10.0147 19.2091 8 17 8C14.7909 8 13 10.0147 13 12.5C13 14.9853 14.7909 17 17 17C19.2091 17 21 14.9853 21 12.5Z" fill="#FF9300"/>
</svg>
