<?xml version="1.0" encoding="UTF-8" standalone="no"?>
<svg
   width="32"
   height="32"
   viewBox="0 0 32 32"
   xmlns="http://www.w3.org/2000/svg">
  <path
     fill-rule="evenodd"
     clip-rule="evenodd"
     d="m 18.322,3 c 7.4263,0 13.4466,5.32441 13.4466,11.8924 0,2.5796 -0.9293,4.9673 -2.5072,6.9161 -0.1275,0.9016 -0.2076,2.5311 0.5255,3.9601 0.3358,0.6543 -0.6632,1.2567 -1.5432,0.9191 -1.1824,-0.4538 -2.2015,-0.9966 -3.0516,-1.5711 -2.0108,1.0589 -4.3598,1.6679 -6.8701,1.6679 -7.4263,0 -13.44651,-5.3243 -13.44651,-11.8921 C 4.87549,8.32441 10.8957,3 18.322,3 Z"
     fill="#8561e7"
     opacity="0.4"
     />
  <path
     fill-rule="evenodd"
     clip-rule="evenodd"
     d="m 13.257242,7.2980143 c -7.4262403,0 -13.23134686,3.5883267 -13.23134686,10.1563267 0,2.5798 0.90339686,4.620859 2.48125486,6.569659 0.12753,0.9016 0.20764,2.531 -0.52536,3.96 -0.33591,0.6544 0.66304,1.2567 1.54311,0.9192 1.18242,-0.4538 2.20151,-0.9964 3.05159,-1.5712 2.01074,1.059 4.384953,1.287032 6.895053,1.287032 7.4263,0 12.146514,-4.274001 12.146514,-10.841801 0,-6.568 -4.934515,-10.4792167 -12.360815,-10.4792167 z"
     fill="#cebff5"
     />
</svg>
