<svg width="16" height="16" viewBox="0 0 16 16" fill="none" xmlns="http://www.w3.org/2000/svg">
<path d="M10 6C10 6.74028 9.5978 7.38663 9 7.73244V10C9 10.5523 8.55228 11 8 11C7.44772 11 7 10.5523 7 10V7.73244C6.4022 7.38663 6 6.74028 6 6C6 4.89543 6.89543 4 8 4C9.10457 4 10 4.89543 10 6Z" fill="#000000" />
<path fill-rule="evenodd" clip-rule="evenodd" d="M15 8C15 12.8 8 16 8 16C8 16 1 12.8 1 8V2.4L8 0L15 2.4V8ZM3 8V3.82857L8 2.11429L13 3.82857V8C13 9.43075 11.9087 10.9118 10.2506 12.2383C9.47905 12.8555 8.69651 13.3485 8.10147 13.6885C8.06693 13.7083 8.03309 13.7274 8 13.7461C7.96692 13.7274 7.93308 13.7083 7.89853 13.6885C7.30349 13.3485 6.52096 12.8555 5.74939 12.2383C4.09134 10.9118 3 9.43075 3 8Z" fill="#000000" />
</svg>
