<svg width="16" height="16" viewBox="0 0 16 16" fill="none" xmlns="http://www.w3.org/2000/svg">
<g id="icons/16/icon-share">
<path id="Shape" fill-rule="evenodd" clip-rule="evenodd" d="M5.08261 5.84066L10.0227 3.37063C10.0077 3.24919 10 3.12549 10 3C10 1.34315 11.3431 0 13 0C14.6569 0 16 1.34315 16 3C16 4.65685 14.6569 6 13 6C12.1911 6 11.457 5.67985 10.9174 5.15934L5.97733 7.62937C5.99229 7.75081 6 7.87451 6 8C6 8.12549 5.99229 8.24919 5.97733 8.37063L10.9174 10.8407C11.457 10.3202 12.1911 10 13 10C14.6569 10 16 11.3431 16 13C16 14.6569 14.6569 16 13 16C11.3431 16 10 14.6569 10 13C10 12.8745 10.0077 12.7508 10.0227 12.6294L5.08261 10.1593C4.54305 10.6798 3.80891 11 3 11C1.34315 11 0 9.65685 0 8C0 6.34315 1.34315 5 3 5C3.80891 5 4.54305 5.32015 5.08261 5.84066Z" fill="#1D212A" fill-opacity="0.72"/>
</g>
</svg>
