<svg width="16" height="16" viewBox="0 0 16 16" fill="none" xmlns="http://www.w3.org/2000/svg">
<path fill-rule="evenodd" clip-rule="evenodd" d="M7.56371 2.02015C7.70733 2.00682 7.85287 2 8 2C8.14713 2 8.29269 2.00682 8.43631 2.02015C8.66481 2.04136 8.88844 2.07906 9.10588 2.13201C10.6449 2.50677 11.8738 3.64573 12.3195 5.11281L12.3736 5.30803L12.399 5.421L12.5576 5.45386C14.3908 5.87942 15.7944 7.3866 15.9793 9.24759L15.9948 9.45578L16 9.66667C16 12.0004 14.0921 13.8861 11.7172 13.995L11.5 14H4.5L4.28285 13.995C1.90795 13.8861 0 12.0004 0 9.66667L0.00521564 9.45578L0.0207033 9.24759C0.205591 7.3866 1.60924 5.87942 3.4424 5.45386L3.601 5.421L3.62639 5.30803L3.68056 5.11281C4.16029 3.53376 5.54725 2.3348 7.25177 2.05974C7.35463 2.04314 7.45866 2.0299 7.56371 2.02015ZM8 5.5C8.55229 5.5 9 5.94772 9 6.5V9.08579L9.29289 8.79289C9.68342 8.40237 10.3166 8.40237 10.7071 8.79289C11.0976 9.18342 11.0976 9.81658 10.7071 10.2071L8.70711 12.2071C8.31658 12.5976 7.68342 12.5976 7.29289 12.2071L5.29289 10.2071C4.90237 9.81658 4.90237 9.18342 5.29289 8.79289C5.68342 8.40237 6.31658 8.40237 6.70711 8.79289L7 9.08579V6.5C7 5.94772 7.44772 5.5 8 5.5Z" fill="#1D212A" fill-opacity="0.72"/>
</svg>
