<svg width="16" height="16" viewBox="0 0 16 16" fill="none" xmlns="http://www.w3.org/2000/svg">
<path fill-rule="evenodd" clip-rule="evenodd" d="M14 0C15.1046 0 16 0.89543 16 2V10C16 11.1046 15.1046 12 14 12V10V8V2H7H6H4C4 0.89543 4.89543 0 6 0H14ZM12 10V12V14C12 15.1046 11.1046 16 10 16H2C0.89543 16 0 15.1046 0 14V6C0 4.89543 0.89543 4 2 4H4H6H7H10C11.1046 4 12 4.89543 12 6V8V10ZM4 6C3.44772 6 3 6.44772 3 7C3 7.55228 3.44772 8 4 8H6.58579L2.29289 12.2929C1.90237 12.6834 1.90237 13.3166 2.29289 13.7071C2.68342 14.0976 3.31658 14.0976 3.70711 13.7071L8 9.41421V12C8 12.5523 8.44772 13 9 13C9.55228 13 10 12.5523 10 12V7C10 6.44772 9.55228 6 9 6H4Z" fill="#1D212A" fill-opacity="0.72"/>
</svg>
