<svg width="16" height="16" viewBox="0 0 16 16" fill="none" xmlns="http://www.w3.org/2000/svg">
<g clip-path="url(#clip0_11672_20729)">
<path fill-rule="evenodd" clip-rule="evenodd" d="M9.87326 0C8.36585 0 7.06016 0.545124 5.98701 1.61827C5.12148 2.4838 4.5975 3.50334 4.43923 4.66583C4.30427 5.6571 4.40699 6.60181 4.75306 7.48915L0.0246418 12.2176L9.48567e-05 14.1567C-0.00804703 14.7999 0.50898 15.3268 1.15221 15.3308L4.64749 15.3525C5.29062 15.3565 5.81411 14.8363 5.81411 14.1931V13.0416L5.81419 13.0402C5.81426 13.04 5.81456 13.0395 5.81524 13.0388C5.81563 13.0384 5.81662 13.0379 5.81687 13.0377L5.81797 13.0377H6.97316C7.61349 13.0377 8.13257 12.5186 8.13257 11.8783V10.7181C8.98849 11.0135 9.87919 11.0841 10.7959 10.9284C11.9397 10.7342 12.9321 10.2182 13.7595 9.39077C14.8327 8.31762 15.3778 7.01193 15.3778 5.50452C15.3778 3.9971 14.8327 2.69141 13.7595 1.61827C12.6864 0.545124 11.3807 0 9.87326 0ZM6.80411 2.43537C7.66302 1.57646 8.6758 1.15556 9.87326 1.15556C11.0707 1.15556 12.0835 1.57646 12.9424 2.43537C13.8013 3.29428 14.2222 4.30706 14.2222 5.50452C14.2222 6.70198 13.8013 7.71476 12.9424 8.57367C12.2821 9.23395 11.5067 9.63563 10.6025 9.78918C9.69738 9.94288 8.83872 9.82037 8.0096 9.41863L7.63973 9.23941L6.97702 9.90213V11.8783L6.97694 11.8796C6.97687 11.8798 6.97657 11.8803 6.97589 11.881C6.97512 11.8818 6.9743 11.8821 6.97426 11.8821L6.97316 11.8821H5.81797C5.17764 11.8821 4.65855 12.4012 4.65855 13.0416V14.1931L4.65847 14.1945C4.6584 14.1946 4.65809 14.1952 4.65741 14.1959C4.65668 14.1966 4.65591 14.1969 4.65579 14.1969L4.65578 14.1969L4.65467 14.197L1.15939 14.1753L1.15802 14.1752C1.15794 14.1751 1.15778 14.1751 1.15755 14.1749C1.15731 14.1747 1.157 14.1745 1.15666 14.1741C1.15589 14.1733 1.15561 14.1725 1.15559 14.1725L1.15556 14.1714L1.17415 12.7023L6.1368 7.73961L5.96043 7.37083C5.58672 6.58945 5.4585 5.74514 5.58422 4.82172C5.7061 3.92656 6.10468 3.1348 6.80411 2.43537ZM10.7438 6.06418C11.5468 6.06418 12.1978 5.41316 12.1978 4.61009C12.1978 3.80702 11.5468 3.15601 10.7438 3.15601C9.94069 3.15601 9.28967 3.80702 9.28967 4.61009C9.28967 5.41316 9.94069 6.06418 10.7438 6.06418Z" fill="#1C1B1F"/>
</g>
<defs>
<clipPath id="clip0_11672_20729">
<rect width="16" height="16" fill="white"/>
</clipPath>
</defs>
</svg>
