<svg width="16" height="16" viewBox="0 0 16 16" fill="none" xmlns="http://www.w3.org/2000/svg">
<g id="icons/16/icon-hide">
<path id="Shape" fill-rule="evenodd" clip-rule="evenodd" d="M8 12.038C8.587 12.038 9.141 11.904 9.644 11.677L8.004 10.038H8C6.896 10.038 6 9.14201 6 8.03801V8.03401L4.361 6.39501C4.134 6.89701 4 7.45101 4 8.03801C4 10.247 5.791 12.038 8 12.038ZM1.115 1.20001L13.842 13.905L12.856 14.891L11.296 13.329C10.362 13.757 9.276 14.038 8 14.038C2 14.038 0 8.03801 0 8.03801C0 8.03801 0.662 6.06901 2.353 4.38601L0.141 2.17501L1.115 1.20001ZM6.3105 4.42471L4.6515 2.76571C5.5945 2.32371 6.7005 2.03771 7.9995 2.03771C13.9995 2.03771 15.9995 8.03771 15.9995 8.03771C15.9995 8.03771 15.3285 10.0347 13.6105 11.7247L11.6135 9.72771C11.8545 9.21271 11.9995 8.64471 11.9995 8.03771C11.9995 5.82871 10.2085 4.03771 7.9995 4.03771C7.3935 4.03771 6.8255 4.18271 6.3105 4.42471ZM8 6.03801C9.104 6.03801 10 6.93401 10 8.03801C10 8.06201 9.994 8.08401 9.993 8.10701L7.931 6.04501C7.954 6.04401 7.977 6.03801 8 6.03801Z" fill="#fff"/>
</g>
</svg>
