<svg width="16" height="16" viewBox="0 0 16 16" fill="none" xmlns="http://www.w3.org/2000/svg">
<path fill="#297EF1" fill-rule="evenodd" d="M8 0C12.411 0 16 3.589 16 8C16 12.411 12.411 16 8 16C4.927 16 2.089 14.206 0.771 11.429C0.534 10.93 0.746 10.334 1.245 10.097C1.742 9.86 2.341 10.072 2.577 10.571C3.566 12.654 5.695 14 8 14C11.309 14 14 11.309 14 8C14 4.691 11.309 2 8 2C6.518 2 5.134 2.571 4.062 3.507C4.327 3.523 4.585 3.64 4.768 3.86C5.122 4.284 5.064 4.915 4.64 5.268L1.64 7.768C0.989 8.311 0 7.848 0 7V3C0 2.448 0.448 2 1 2C1.481 2 1.865 2.348 1.96 2.801C3.452 1.08 5.636 0 8 0ZM8 4C8.552 4 9 4.448 9 5V7.586L10.707 9.293C11.098 9.684 11.098 10.316 10.707 10.707C10.512 10.902 10.256 11 10 11C9.744 11 9.488 10.902 9.293 10.707L7.293 8.708C7.201 8.615 7.128 8.504 7.077 8.382C7.027 8.26 7 8.13 7 8V5C7 4.448 7.448 4 8 4Z"/>
</svg>
