<svg width="16" height="16" viewBox="0 0 16 16" fill="none" xmlns="http://www.w3.org/2000/svg">
<g id="icons/16/icon-magnifier">
<path id="Shape" fill-rule="evenodd" clip-rule="evenodd" d="M10.4722 10H11.5L14.7941 13.2941C15.1861 13.6861 15.1839 14.3161 14.7939 14.7061L14.7061 14.7939C14.3181 15.1819 13.684 15.184 13.2941 14.7941L10 11.5V10.4722C8.93849 11.4223 7.53671 12 6 12C2.68629 12 0 9.31371 0 6C0 2.68629 2.68629 0 6 0C9.31371 0 12 2.68629 12 6C12 7.53671 11.4223 8.93849 10.4722 10ZM6 10C8.20914 10 10 8.20914 10 6C10 3.79086 8.20914 2 6 2C3.79086 2 2 3.79086 2 6C2 8.20914 3.79086 10 6 10Z" fill="#1D212A" fill-opacity="0.72"/>
</g>
</svg>
